<svg width="214" height="66" viewBox="0 0 214 66" fill="none" xmlns="http://www.w3.org/2000/svg">
<path d="M97.1827 21.5215C99.9279 23.6286 103.363 24.8812 107.092 24.8812C111.396 24.8812 115.31 23.2116 118.222 20.4848L141.879 3.29649C143.895 1.83183 146.128 0.88335 148.422 0.426077C152.954 -0.614402 157.895 0.232022 161.959 3.17171L206.727 35.556C214.204 40.9642 215.88 51.4092 210.472 58.8855C205.064 66.3619 194.619 68.0385 187.142 62.6303L161.953 44.4087C161.944 44.4157 161.935 44.4227 161.927 44.4298C159.175 42.3051 155.725 41.0411 151.98 41.0411C147.928 41.0411 144.222 42.5206 141.372 44.969L116.82 62.8077C111.295 66.8219 104.136 66.9589 98.5896 63.7329C97.9958 63.4052 97.4155 63.0379 96.8521 62.6303L71.5255 44.3097C71.5181 44.3159 71.5108 44.322 71.5034 44.3281C68.7742 42.2648 65.3749 41.0411 61.6899 41.0411C57.6379 41.0411 53.9315 42.5207 51.0814 44.9691L26.5296 62.8077C19.0646 68.2316 8.61611 66.5769 3.19227 59.1119C-2.23163 51.6469 -0.576925 41.1984 6.88807 35.7746L51.5886 3.29649C53.6044 1.83183 55.8378 0.883352 58.1311 0.426079C62.6635 -0.6144 67.6045 0.232022 71.6684 3.17171L97.114 21.5784C97.1368 21.5593 97.1597 21.5404 97.1827 21.5215Z" fill="#025567"/>
<path d="M107.092 24.8812C103.363 24.8812 99.9278 23.6287 97.1827 21.5215L97.1139 21.5784L71.6683 3.17171C67.6045 0.232022 62.6634 -0.614401 58.131 0.426079C55.8378 0.883352 53.6043 1.83183 51.5885 3.29649L17.3142 28.2157C31.5503 21.9313 48.3515 24.8812 64.1267 38.8608C65.8695 40.4052 71.5181 44.3159 71.5254 44.3097L96.852 62.6303C97.4154 63.0379 97.9958 63.4052 98.5895 63.7329C104.136 66.9589 111.295 66.8219 116.82 62.8078L149.928 38.8608C161.959 30.0113 179.17 21.5215 195.971 27.7027L161.959 3.17171C157.895 0.232022 152.954 -0.614403 148.421 0.426077C146.128 0.88335 143.895 1.83183 141.879 3.29649L118.222 20.4848C115.31 23.2116 111.396 24.8812 107.092 24.8812Z" fill="#00F0FF"/>
<path d="M106.835 24.8812C103.107 24.8812 99.6713 23.6287 96.9261 21.5215L96.8574 21.5784L71.4118 3.17171C67.348 0.232022 62.4069 -0.614401 57.8745 0.426079C55.5812 0.883352 53.3478 1.83183 51.332 3.29649L30.9091 18.3402C35.2697 17.4425 38.2195 18.3402 42.8366 22.3161C44.2357 23.5209 71.2616 44.3159 71.2689 44.3097L96.5955 62.6303C97.1589 63.0379 97.7393 63.4052 98.333 63.7329C103.88 66.9589 111.039 66.8219 116.563 62.8078L141.977 44.7604L172.153 22.3964C176.092 19.6228 179.555 18.3402 184.3 19.3663L161.702 3.17171C157.638 0.232022 152.697 -0.614403 148.165 0.426077C145.872 0.88335 143.638 1.83183 141.622 3.29649L117.966 20.4848C115.054 23.2116 111.139 24.8812 106.835 24.8812Z" fill="#00F0FF"/>
</svg>
